<!DOCTYPE svg PUBLIC "-//W3C//DTD SVG 1.1//EN" "http://www.w3.org/Graphics/SVG/1.1/DTD/svg11.dtd">
<!-- Uploaded to: SVG Repo, www.svgrepo.com, Transformed by: SVG Repo Mixer Tools -->
<svg fill="#1c428b" height="800px" width="800px" version="1.1" id="Layer_1" xmlns="http://www.w3.org/2000/svg" xmlns:xlink="http://www.w3.org/1999/xlink" viewBox="0 0 1792 1792" xml:space="preserve" stroke="#1c428b">
<g id="SVGRepo_bgCarrier" stroke-width="0"/>
<g id="SVGRepo_tracerCarrier" stroke-linecap="round" stroke-linejoin="round"/>
<g id="SVGRepo_iconCarrier"> <title>fiction</title> <path d="M1673.9,1363.2L1673.9,1363.2c0,52.3-42.4,94.3-94.3,94.3H212.7c-52.3,0-94.3-42.4-94.3-94.3l0,0 c0-52.3,42.4-94.3,94.3-94.3h1366.8C1631.5,1268.5,1673.9,1310.9,1673.9,1363.2z"/> <path d="M1673.9,895.6L1673.9,895.6c0,52.3-42.4,94.3-94.3,94.3H213c-52.3,0-94.3-42.4-94.3-94.3l0,0c0-52.3,42.4-94.3,94.3-94.3 h1366.6C1631.5,800.8,1673.9,843.2,1673.9,895.6z"/> <path d="M1673.9,427.9L1673.9,427.9c0,52.3-42.4,94.3-94.3,94.3H212.7c-52.3,0-94.3-42.4-94.3-94.3l0,0c0-52.3,42.4-94.3,94.3-94.3 h1366.8C1631.5,333.2,1673.9,375.6,1673.9,427.9z"/> </g>
</svg>