<?xml version="1.0" standalone="no"?>
<!DOCTYPE svg PUBLIC "-//W3C//DTD SVG 20010904//EN"
 "http://www.w3.org/TR/2001/REC-SVG-20010904/DTD/svg10.dtd">
<svg version="1.0" xmlns="http://www.w3.org/2000/svg"
 width="594.000000pt" height="594.000000pt" viewBox="0 0 594.000000 594.000000"
 preserveAspectRatio="xMidYMid meet">
<metadata>
Created by potrace 1.14, written by Peter Selinger 2001-2017
</metadata>
<g transform="translate(0.000000,594.000000) scale(0.100000,-0.100000)"
fill="#000000" stroke="none">
<path d="M1818 4392 c-269 -1 -488 -4 -488 -5 0 -2 32 -59 71 -128 40 -68 81
-140 92 -159 10 -19 69 -120 130 -225 107 -185 138 -239 161 -280 6 -11 24
-39 39 -62 15 -24 27 -45 27 -48 0 -3 63 -113 140 -245 77 -132 140 -242 140
-246 0 -4 11 -22 25 -40 14 -18 25 -35 25 -39 0 -3 26 -50 58 -103 32 -53 71
-118 85 -144 15 -27 39 -69 54 -95 14 -27 47 -84 73 -128 145 -250 184 -316
190 -320 3 -2 31 37 60 88 123 209 270 470 270 478 0 5 5 9 10 9 6 0 10 4 10
9 0 5 32 63 71 129 39 66 71 124 69 128 -1 4 3 10 8 13 5 3 44 67 87 141 43
74 99 171 125 215 79 135 107 190 104 200 -4 11 -240 12 -297 1 -21 -4 -38
-15 -45 -29 -7 -12 -16 -29 -22 -37 -5 -8 -51 -87 -101 -175 -51 -88 -117
-203 -147 -255 -30 -52 -67 -115 -81 -141 -90 -157 -115 -198 -122 -193 -4 2
-21 28 -37 57 -15 28 -38 68 -49 87 -63 108 -123 213 -123 215 0 1 -24 43 -54
92 -29 49 -64 109 -78 133 -14 25 -107 187 -208 360 -220 379 -253 440 -246
448 5 5 135 5 163 1 5 -1 40 -1 78 0 59 1 72 4 80 21 6 10 41 72 78 136 37 64
67 122 65 128 -2 8 -143 10 -490 8z"/>
<path d="M4335 4392 c-59 -3 -62 -4 -80 -40 -18 -35 -64 -113 -93 -157 -25
-41 -45 -85 -40 -90 3 -3 67 -5 144 -4 76 0 149 0 161 0 17 -1 29 11 48 47 14
26 36 65 48 87 13 22 38 66 56 97 l32 57 -108 3 c-59 2 -135 2 -168 0z"/>
<path d="M2621 4361 c-12 -16 -21 -32 -21 -36 0 -4 -36 -67 -80 -141 -44 -73
-80 -137 -80 -143 0 -5 -4 -11 -8 -13 -4 -1 -33 -49 -65 -105 l-57 -102 79
-137 c43 -76 83 -140 87 -141 5 -2 29 32 53 75 25 42 64 110 88 149 24 40 43
74 43 77 0 2 25 45 55 95 30 51 55 95 55 98 0 15 52 73 61 67 6 -3 51 -5 102
-4 51 1 110 1 132 1 22 0 67 0 100 0 33 0 69 0 80 0 58 -1 177 0 183 0 4 1 11
1 15 0 9 -1 -34 -83 -103 -196 -61 -101 -71 -93 111 -93 101 1 164 5 173 12
14 10 186 301 186 314 0 3 6 13 14 21 8 9 27 40 43 69 43 82 58 108 77 136
l16 26 -659 0 -660 0 -20 -29z"/>
<path d="M3960 3818 c-10 -4 -35 -35 -55 -70 -19 -35 -40 -70 -45 -78 -39 -66
-87 -150 -101 -175 -8 -16 -39 -70 -69 -120 -29 -49 -60 -103 -70 -120 -69
-119 -94 -163 -104 -182 -6 -13 -14 -23 -18 -23 -5 0 -8 -5 -8 -11 0 -5 -60
-115 -134 -242 -73 -128 -143 -248 -153 -267 -11 -19 -31 -53 -44 -75 -13 -22
-31 -52 -39 -67 -22 -40 -109 -191 -120 -208 -9 -14 -56 -96 -154 -264 l-45
-80 18 -30 c10 -17 44 -77 75 -133 32 -56 63 -106 70 -112 10 -8 20 2 42 44
16 31 34 63 39 73 6 9 27 45 48 80 20 35 37 65 37 68 0 2 11 21 24 42 12 20
24 40 25 44 0 5 17 32 36 62 19 30 35 58 35 62 0 4 6 15 14 23 7 9 26 41 42
71 16 30 32 57 35 60 4 3 19 30 35 60 15 30 31 57 34 60 3 3 29 46 56 95 28
50 86 151 129 225 43 74 86 149 95 165 9 17 56 96 104 177 47 81 86 149 86
151 0 4 161 277 180 307 6 8 13 21 17 29 3 8 36 64 71 125 36 61 72 125 80
141 9 17 24 41 34 54 10 13 18 29 18 35 0 12 -287 16 -320 4z"/>
</g>
</svg>
