<svg id="Layer_1" data-name="Layer 1" xmlns="http://www.w3.org/2000/svg" viewBox="0 0 842.89 596.28"><defs><style>.cls-1,.cls-2{fill:#e9eaec;}.cls-2,.cls-3,.cls-4{stroke:#000;stroke-miterlimit:10;}.cls-3{fill:#1d428a;}.cls-4{fill:none;}</style></defs><rect class="cls-1" x="0.5" y="0.5" width="841.89" height="595.28"/><polygon class="cls-1" points="607.52 177.3 584.38 217.39 491.27 378.66 467.99 418.98 444.72 459.29 421.44 499.61 398.17 459.29 421.44 418.98 444.72 378.66 467.99 338.35 537.83 217.39 560.97 177.3 607.52 177.3"/><polygon class="cls-1" points="491.27 217.39 444.72 298.03 421.44 338.34 398.16 378.66 374.89 418.97 351.61 378.66 328.34 338.34 305.06 298.03 281.79 257.72 258.51 217.39 258.5 217.39 235.36 177.3 212.08 136.98 188.81 96.67 328.21 96.67 305.06 136.76 304.93 136.98 258.64 136.98 281.78 177.07 281.65 177.3 281.91 177.3 305.06 217.39 305.06 217.4 328.34 257.71 351.61 298.03 374.89 338.34 398.17 298.03 421.44 257.71 444.72 217.39 491.27 217.39"/><polygon class="cls-1" points="654.08 96.67 630.8 136.98 584.25 136.98 607.53 96.67 654.08 96.67"/><polygon class="cls-1" points="560.97 96.67 537.7 136.98 514.42 177.3 467.87 177.3 491.14 136.98 398.04 136.98 374.89 177.08 374.76 177.3 351.62 217.39 351.61 217.39 328.47 177.3 328.34 177.08 351.49 136.98 351.74 136.98 351.61 136.77 374.77 96.67 560.97 96.67"/><polygon class="cls-1" points="607.52 177.3 584.38 217.39 491.27 378.66 467.99 418.98 444.72 459.29 421.44 499.61 398.17 459.29 421.44 418.98 444.72 378.66 467.99 338.35 537.83 217.39 560.97 177.3 607.52 177.3"/><polygon class="cls-1" points="491.27 217.39 444.72 298.03 421.44 338.34 398.16 378.66 374.89 418.97 351.61 378.66 328.34 338.34 305.06 298.03 281.79 257.72 258.51 217.39 258.5 217.39 235.36 177.3 212.08 136.98 188.81 96.67 328.21 96.67 305.06 136.76 304.93 136.98 258.64 136.98 281.78 177.07 281.65 177.3 281.91 177.3 305.06 217.39 305.06 217.4 328.34 257.71 351.61 298.03 374.89 338.34 398.17 298.03 421.44 257.71 444.72 217.39 491.27 217.39"/><polygon class="cls-1" points="654.08 96.67 630.8 136.98 584.25 136.98 607.53 96.67 654.08 96.67"/><polygon class="cls-1" points="560.97 96.67 537.7 136.98 514.42 177.3 467.87 177.3 491.14 136.98 398.04 136.98 374.89 177.08 374.76 177.3 351.62 217.39 351.61 217.39 328.47 177.3 328.34 177.08 351.49 136.98 351.74 136.98 351.61 136.77 374.77 96.67 560.97 96.67"/><polygon class="cls-1" points="607.52 177.3 584.38 217.39 491.27 378.66 467.99 418.98 444.72 459.29 421.44 499.61 398.17 459.29 421.44 418.98 444.72 378.66 467.99 338.35 537.83 217.39 560.97 177.3 607.52 177.3"/><polygon class="cls-1" points="491.27 217.39 444.72 298.03 421.44 338.34 398.16 378.66 374.89 418.97 351.61 378.66 328.34 338.34 305.06 298.03 281.79 257.72 258.51 217.39 258.5 217.39 235.36 177.3 212.08 136.98 188.81 96.67 328.21 96.67 305.06 136.76 304.93 136.98 258.64 136.98 281.78 177.07 281.65 177.3 281.91 177.3 305.06 217.39 305.06 217.4 328.34 257.71 351.61 298.03 374.89 338.34 398.17 298.03 421.44 257.71 444.72 217.39 491.27 217.39"/><polygon class="cls-1" points="654.08 96.67 630.8 136.98 584.25 136.98 607.53 96.67 654.08 96.67"/><polygon class="cls-1" points="560.97 96.67 537.7 136.98 514.42 177.3 467.87 177.3 491.14 136.98 398.04 136.98 374.89 177.08 374.76 177.3 351.62 217.39 351.61 217.39 328.47 177.3 328.34 177.08 351.49 136.98 351.74 136.98 351.61 136.77 374.77 96.67 560.97 96.67"/><rect class="cls-2" x="0.5" y="0.5" width="841.89" height="595.28"/><polygon class="cls-1" points="607.52 177.3 584.38 217.39 491.27 378.66 467.99 418.98 444.72 459.29 421.44 499.61 398.17 459.29 421.44 418.98 444.72 378.66 467.99 338.35 537.83 217.39 560.97 177.3 607.52 177.3"/><polygon class="cls-1" points="491.27 217.39 444.72 298.03 421.44 338.34 398.16 378.66 374.89 418.97 351.61 378.66 328.34 338.34 305.06 298.03 281.79 257.72 258.51 217.39 258.5 217.39 235.36 177.3 212.08 136.98 188.81 96.67 328.21 96.67 305.06 136.76 304.93 136.98 258.64 136.98 281.78 177.07 281.65 177.3 281.91 177.3 305.06 217.39 305.06 217.4 328.34 257.71 351.61 298.03 374.89 338.34 398.17 298.03 421.44 257.71 444.72 217.39 491.27 217.39"/><polygon class="cls-1" points="654.08 96.67 630.8 136.98 584.25 136.98 607.53 96.67 654.08 96.67"/><polygon class="cls-1" points="560.97 96.67 537.7 136.98 514.42 177.3 467.87 177.3 491.14 136.98 398.04 136.98 374.89 177.08 374.76 177.3 351.62 217.39 351.61 217.39 328.47 177.3 328.34 177.08 351.49 136.98 351.74 136.98 351.61 136.77 374.77 96.67 560.97 96.67"/><polygon class="cls-3" points="607.52 177.3 584.38 217.39 491.27 378.66 467.99 418.98 444.72 459.29 421.44 499.61 398.17 459.29 421.44 418.98 444.72 378.66 467.99 338.35 537.83 217.39 560.97 177.3 607.52 177.3"/><polygon class="cls-3" points="491.27 217.39 444.72 298.03 421.44 338.34 398.16 378.66 374.89 418.97 351.61 378.66 328.34 338.34 305.06 298.03 281.79 257.72 258.51 217.39 258.5 217.39 235.36 177.3 212.08 136.98 188.81 96.67 328.21 96.67 305.06 136.76 304.93 136.98 258.64 136.98 281.78 177.07 281.65 177.3 281.91 177.3 305.06 217.39 305.06 217.4 328.34 257.71 351.61 298.03 374.89 338.34 398.17 298.03 421.44 257.71 444.72 217.39 491.27 217.39"/><polygon class="cls-3" points="654.08 96.67 630.8 136.98 584.25 136.98 607.53 96.67 654.08 96.67"/><polygon class="cls-3" points="560.97 96.67 537.7 136.98 514.42 177.3 467.87 177.3 491.14 136.98 398.04 136.98 374.89 177.08 374.76 177.3 351.62 217.39 351.61 217.39 328.47 177.3 328.34 177.08 351.49 136.98 351.74 136.98 351.61 136.77 374.77 96.67 560.97 96.67"/><polygon class="cls-4" points="607.52 177.3 584.38 217.39 491.27 378.66 467.99 418.98 444.72 459.29 421.44 499.61 398.17 459.29 421.44 418.98 444.72 378.66 467.99 338.35 537.83 217.39 560.97 177.3 607.52 177.3"/><polygon class="cls-4" points="491.27 217.39 444.72 298.03 421.44 338.34 398.16 378.66 374.89 418.97 351.61 378.66 328.34 338.34 305.06 298.03 281.79 257.72 258.51 217.39 258.5 217.39 235.36 177.3 212.08 136.98 188.81 96.67 328.21 96.67 305.06 136.76 304.93 136.98 258.64 136.98 281.78 177.07 281.65 177.3 281.91 177.3 305.06 217.39 305.06 217.4 328.34 257.71 351.61 298.03 374.89 338.34 398.17 298.03 421.44 257.71 444.72 217.39 491.27 217.39"/><polygon class="cls-4" points="654.08 96.67 630.8 136.98 584.25 136.98 607.53 96.67 654.08 96.67"/><polygon class="cls-4" points="560.97 96.67 537.7 136.98 514.42 177.3 467.87 177.3 491.14 136.98 398.04 136.98 374.89 177.08 374.76 177.3 351.62 217.39 351.61 217.39 328.47 177.3 328.34 177.08 351.49 136.98 351.74 136.98 351.61 136.77 374.77 96.67 560.97 96.67"/><rect class="cls-4" x="0.5" y="0.5" width="841.89" height="595.28"/><polygon class="cls-4" points="607.52 177.3 584.38 217.39 491.27 378.66 467.99 418.98 444.72 459.29 421.44 499.61 398.17 459.29 421.44 418.98 444.72 378.66 467.99 338.35 537.83 217.39 560.97 177.3 607.52 177.3"/><polygon class="cls-4" points="491.27 217.39 444.72 298.03 421.44 338.34 398.16 378.66 374.89 418.97 351.61 378.66 328.34 338.34 305.06 298.03 281.79 257.72 258.51 217.39 258.5 217.39 235.36 177.3 212.08 136.98 188.81 96.67 328.21 96.67 305.06 136.76 304.93 136.98 258.64 136.98 281.78 177.07 281.65 177.3 281.91 177.3 305.06 217.39 305.06 217.4 328.34 257.71 351.61 298.03 374.89 338.34 398.17 298.03 421.44 257.71 444.72 217.39 491.27 217.39"/><polygon class="cls-4" points="654.08 96.67 630.8 136.98 584.25 136.98 607.53 96.67 654.08 96.67"/><polygon class="cls-4" points="560.97 96.67 537.7 136.98 514.42 177.3 467.87 177.3 491.14 136.98 398.04 136.98 374.89 177.08 374.76 177.3 351.62 217.39 351.61 217.39 328.47 177.3 328.34 177.08 351.49 136.98 351.74 136.98 351.61 136.77 374.77 96.67 560.97 96.67"/><polygon class="cls-4" points="607.52 177.3 584.38 217.39 491.27 378.66 467.99 418.98 444.72 459.29 421.44 499.61 398.17 459.29 421.44 418.98 444.72 378.66 467.99 338.35 537.83 217.39 560.97 177.3 607.52 177.3"/><polygon class="cls-4" points="491.27 217.39 444.72 298.03 421.44 338.34 398.16 378.66 374.89 418.97 351.61 378.66 328.34 338.34 305.06 298.03 281.79 257.72 258.51 217.39 258.5 217.39 235.36 177.3 212.08 136.98 188.81 96.67 328.21 96.67 305.06 136.76 304.93 136.98 258.64 136.98 281.78 177.07 281.65 177.3 281.91 177.3 305.06 217.39 305.06 217.4 328.34 257.71 351.61 298.03 374.89 338.34 398.17 298.03 421.44 257.71 444.72 217.39 491.27 217.39"/><polygon class="cls-4" points="654.08 96.67 630.8 136.98 584.25 136.98 607.53 96.67 654.08 96.67"/><polygon class="cls-4" points="560.97 96.67 537.7 136.98 514.42 177.3 467.87 177.3 491.14 136.98 398.04 136.98 374.89 177.08 374.76 177.3 351.62 217.39 351.61 217.39 328.47 177.3 328.34 177.08 351.49 136.98 351.74 136.98 351.61 136.77 374.77 96.67 560.97 96.67"/><polygon class="cls-4" points="607.52 177.3 584.38 217.39 491.27 378.66 467.99 418.98 444.72 459.29 421.44 499.61 398.17 459.29 421.44 418.98 444.72 378.66 467.99 338.35 537.83 217.39 560.97 177.3 607.52 177.3"/><polygon class="cls-4" points="491.27 217.39 444.72 298.03 421.44 338.34 398.16 378.66 374.89 418.97 351.61 378.66 328.34 338.34 305.06 298.03 281.79 257.72 258.51 217.39 258.5 217.39 235.36 177.3 212.08 136.98 188.81 96.67 328.21 96.67 305.06 136.76 304.93 136.98 258.64 136.98 281.78 177.07 281.65 177.3 281.91 177.3 305.06 217.39 305.06 217.4 328.34 257.71 351.61 298.03 374.89 338.34 398.17 298.03 421.44 257.71 444.72 217.39 491.27 217.39"/><polygon class="cls-4" points="654.08 96.67 630.8 136.98 584.25 136.98 607.53 96.67 654.08 96.67"/><polygon class="cls-4" points="560.97 96.67 537.7 136.98 514.42 177.3 467.87 177.3 491.14 136.98 398.04 136.98 374.89 177.08 374.76 177.3 351.62 217.39 351.61 217.39 328.47 177.3 328.34 177.08 351.49 136.98 351.74 136.98 351.61 136.77 374.77 96.67 560.97 96.67"/></svg>